<svg xmlns="http://www.w3.org/2000/svg" width="135" height="33" fill="none"><g fill="#fff" clip-path="url(#a)"><path fill-rule="evenodd" d="m27.589 5.405.168 1.018c.133.947.194 1.903.184 2.86a26.388 26.388 0 0 1-.76 6.271 23.512 23.512 0 0 1-3.498 7.79c-1.886 2.713-4.612 5.38-8.587 7.524l-.486.262-.486-.262c-3.975-2.143-6.7-4.81-8.587-7.523a23.512 23.512 0 0 1-3.498-7.79 26.394 26.394 0 0 1-.76-6.272c-.01-.956.051-1.912.184-2.859l.168-1.018a.64.64 0 1 0-1.26-.209L.203 6.215A20.273 20.273 0 0 0 0 9.283c0 2.218.268 4.427.796 6.58a24.79 24.79 0 0 0 3.693 8.215c1.99 2.864 4.878 5.681 9.033 7.917l.79.425a.636.636 0 0 0 .605 0l.788-.425c4.151-2.237 7.04-5.053 9.033-7.918a24.79 24.79 0 0 0 3.69-8.213c.529-2.153.796-4.362.797-6.58a20.289 20.289 0 0 0-.202-3.067l-.169-1.019a.639.639 0 0 0-1.26.21l-.006-.003h.001Z" clip-rule="evenodd"/><path fill-rule="evenodd" d="m5.121 4.71 9.49-2.9 9.703 2.963a.64.64 0 1 0 .372-1.226L14.797.527a.635.635 0 0 0-.372 0L4.747 3.483A.641.641 0 1 0 5.12 4.71h.001Z" clip-rule="evenodd"/><path fill-rule="evenodd" d="M.435 5.592 14.04 32.147a.64.64 0 0 0 1.13.01l8.298-15.518.012-.024 5.31-11.04a.64.64 0 0 0-1.15-.558l-5.3 11.031-7.711 14.43L1.57 5.01a.639.639 0 1 0-1.136.583Z" clip-rule="evenodd"/><path fill-rule="evenodd" d="M6.948 17.42h15.13a.638.638 0 1 0 0-1.278H6.947a.639.639 0 0 0 .001 1.277Zm42.2-5.51h-9.842a.645.645 0 0 0-.642.642v7.9a.646.646 0 0 0 .642.642h9.843v1.338h-9.843a1.968 1.968 0 0 1-1.975-1.975v-7.9a1.964 1.964 0 0 1 1.975-1.975h9.843l-.001 1.327Zm18.483-1.334v1.338h-9.48v3.91h7.62v1.35h-7.62v3.918h9.479v1.338H56.812V10.576h10.819Z" clip-rule="evenodd"/><path d="M87.15 12.567v3.473a1.968 1.968 0 0 1-1.975 1.975h-1.81l3.72 4.41h-1.762l-3.703-4.41h-4.35a6.284 6.284 0 0 1-.642-.066v4.477H75.29V10.592h9.875a1.967 1.967 0 0 1 1.975 1.975h.01Zm-9.875 4.099h7.9a.615.615 0 0 0 .626-.626v-3.473a.634.634 0 0 0-.627-.642h-7.9a.645.645 0 0 0-.642.642v3.473a.593.593 0 0 0 .19.446.63.63 0 0 0 .453.18Z"/><path fill-rule="evenodd" d="M94.228 10.576h11.846v1.338h-5.242V22.43h-1.338V11.914h-5.266v-1.338Zm19.025 11.85v-11.85h1.338v11.85h-1.338Zm19.125-11.85h1.711l-4.953 5.924 4.97 5.925h-1.728l-4.411-5.25h-3.818v5.25h-1.348v-11.85h1.35v5.25h3.818l4.409-5.25v.001Z" clip-rule="evenodd"/></g><defs><clipPath id="a"><path fill="#fff" d="M0 .5h135v32H0z"/></clipPath></defs></svg>